<svg xmlns="http://www.w3.org/2000/svg" version="1.1" xmlns:xlink="http://www.w3.org/1999/xlink" width="512" height="512" x="0" y="0" viewBox="0 0 60 60" style="enable-background:new 0 0 512 512" xml:space="preserve" class=""><g><path d="M10.022 18.9c-.005.181-.022.356-.022.539 0 8.322 6.1 17.352 11.219 23.467A3.1 3.1 0 0 0 23 43.935v3.343A1.993 1.993 0 0 0 22 49v2a1.993 1.993 0 0 0 1 1.722V57a3 3 0 0 0 3 3h8a3 3 0 0 0 3-3v-4.278A1.993 1.993 0 0 0 38 51v-2a1.993 1.993 0 0 0-1-1.722v-3.343a3.107 3.107 0 0 0 1.786-1.035 74.675 74.675 0 0 0 3.779-4.9H48a5 5 0 0 0 1-9.9V28a6.988 6.988 0 0 0-.223-1.722A21.862 21.862 0 0 0 50 19.44C50 8.721 41.028 0 30 0c-.157 0-.323.006-.5.018a20.231 20.231 0 0 0-10.03 2.911A6.988 6.988 0 0 0 9 9c0 .138.005.276.014.417a4.995 4.995 0 0 0 1.008 9.483ZM23.61 42a1.145 1.145 0 0 1-.863-.382C18.733 36.824 12 27.568 12 19.44c0-.15.014-.292.018-.44h8c-.006.333-.02.655-.02 1a65.38 65.38 0 0 0 4.35 22ZM35 57a1 1 0 0 1-1 1h-8a1 1 0 0 1-1-1v-4h10Zm1-6H24v-2h12v2Zm-11-4v-3h4v3Zm6 0v-3h4v3Zm6.258-5.388a1.147 1.147 0 0 1-.868.388h-.734a61.012 61.012 0 0 0 1.381-4H40.1a75.347 75.347 0 0 1-2.842 3.612ZM51 33a3 3 0 0 1-3 3H37a3 3 0 0 1-.67-5.917 1 1 0 0 0 .76-1.159A5 5 0 1 1 47 28a4.9 4.9 0 0 1-.077.839 1 1 0 0 0 .985 1.17 1.078 1.078 0 0 0 .135-.009A3 3 0 0 1 51 33Zm-3-13.56a18.129 18.129 0 0 1-.545 4.184 6.973 6.973 0 0 0-7.477-2.324c.013-.429.022-.861.022-1.3 0-7.876-1.481-13.751-4.135-17.031A17.511 17.511 0 0 1 48 19.44ZM30 2c5.01 0 8 6.729 8 18 0 .8-.027 1.568-.071 2.317A6.99 6.99 0 0 0 35 28c0 .138.005.276.014.417a4.995 4.995 0 0 0 .051 9.192A57.17 57.17 0 0 1 33.497 42h-7A63.26 63.26 0 0 1 22 20c0-.346.014-.669.02-1a4.99 4.99 0 0 0 1.253-9.817C24.622 4.541 26.987 2 30 2Zm-5.882.964a13.212 13.212 0 0 0-1.809 3.023 7.068 7.068 0 0 0-1.173-1.727 18.037 18.037 0 0 1 2.982-1.296ZM10.33 11.083a1 1 0 0 0 .76-1.159A5 5 0 1 1 21 9a4.9 4.9 0 0 1-.077.839 1 1 0 0 0 .985 1.17 1.329 1.329 0 0 0 .135-.009A3 3 0 0 1 22 17H11a3 3 0 0 1-.67-5.917Z" fill="#b5b5b5" opacity="1" data-original="#000000" class=""></path></g></svg>