<svg xmlns="http://www.w3.org/2000/svg" version="1.1" xmlns:xlink="http://www.w3.org/1999/xlink" width="512" height="512" x="0" y="0" viewBox="0 0 480.002 480.002" style="enable-background:new 0 0 512 512" xml:space="preserve" class=""><g><path d="M464.485 350.406a50.544 50.544 0 0 0-22.692-2.998c-6.286-18.094-19.332-30.96-36.625-35.802-20.42-5.719-43.521.727-58.849 16.421a8 8 0 0 0 11.446 11.18c21.41-21.921 61.722-18.974 70.538 19.099 1.012 4.37 5.418 7.05 9.761 5.95 6.937-1.76 14.134-1.368 20.807 1.133 3.068 1.15 5.13 4.153 5.13 7.475v27.282c0 4.411-3.589 8-8 8H22.678A6.686 6.686 0 0 1 16 401.468v-17.045a6.686 6.686 0 0 1 6.678-6.678h368.693a8 8 0 0 0 0-16h-77.21v-84.802a8 8 0 0 0-8-8h-65.548a8 8 0 0 0-8 8v57.815a8 8 0 0 0 16 0v-49.815h49.548v76.802H196.742v-35.89h2.161a8 8 0 0 0 0-16H90.322a8 8 0 0 0 0 16h2.161v35.89H51.774V166.019l147.07-92.671 147.188 95.302v125.141a8 8 0 0 0 16 0v-53.8l85.05 23.071v43.89a8 8 0 0 0 16 0v-39.55c7.049 1.912 7.472 2.132 8.923 2.132a8.004 8.004 0 0 0 7.716-5.907 7.998 7.998 0 0 0-5.626-9.815l-112.063-30.398V179.01l18.303 11.851a8 8 0 0 0 8.696-13.43l-185.78-120.29a8.002 8.002 0 0 0-8.612-.054l-134.025 84.45a28.363 28.363 0 0 1-8.646-20.392c0-21.086 22.303-34.805 41.083-25.388a7.997 7.997 0 0 0 10.293-2.791c3.824-5.883 9.987-9.71 16.907-10.5 4.39-.501 7.542-4.466 7.041-8.855s-4.462-7.544-8.855-7.041a39.138 39.138 0 0 0-24.366 12.351c-28.481-9.292-58.103 12.032-58.103 42.225a44.325 44.325 0 0 0 10.865 29.075L3.735 177.377c-6.758 4.258-3.748 14.77 4.272 14.77a7.966 7.966 0 0 0 4.257-1.232l23.51-14.814v185.645H22.678C10.173 361.745 0 371.918 0 384.423v17.045c0 12.505 10.173 22.678 22.678 22.678H456c13.233 0 24-10.767 24-24v-27.282c0-9.955-6.234-18.979-15.515-22.458zm-356.002-24.55h72.259v35.89h-72.259z" fill="#fb7185" opacity="1" data-original="#fb7185"></path><path d="M155.381 142.049c-12.811 0-23.233 10.422-23.233 23.232v29.922c0 12.811 10.423 23.232 23.233 23.232h81.922c12.811 0 23.232-10.422 23.232-23.232v-29.922c0-12.811-10.422-23.232-23.232-23.232zm-7.234 53.154v-29.922c0-3.988 3.245-7.232 7.233-7.232h32.961v44.387H155.38c-3.987 0-7.233-3.244-7.233-7.233zm96.388-29.922v29.922c0 3.988-3.244 7.232-7.232 7.232h-32.961v-44.387h32.961c3.988.001 7.232 3.245 7.232 7.233z" fill="#fb7185" opacity="1" data-original="#fb7185"></path></g></svg>