<svg xmlns="http://www.w3.org/2000/svg" version="1.1" xmlns:xlink="http://www.w3.org/1999/xlink" width="512" height="512" x="0" y="0" viewBox="0 0 100 100" style="enable-background:new 0 0 512 512" xml:space="preserve" class=""><g><path fill="#3d1d1c" d="M50.208 7.556C6.123 7.324-14.318 53.867 25.774 74.543c-.705 2.429-4.527 15.63-4.68 16.667-.109.811.509 1.491 1.511 1.143 1.448-.203 16.78-10.973 19.434-12.843 63.573 7.609 76.091-69.034 8.169-71.954z" opacity="1" data-original="#3d1d1c" class=""></path><g fill="#ffe812"><path d="M27.433 53.943c-.086 3.333-5.216 3.346-5.307 0V38.18h-4.14c-3.429-.087-3.436-5.107 0-5.196h13.587c3.431.091 3.435 5.105 0 5.196h-4.14zM49.733 56.076c-1.191.628-3.495.475-3.895-.806l-1.314-3.44h-8.091l-1.315 3.442c-.398 1.279-2.703 1.433-3.893.804-.732-.337-1.435-1.265-.629-3.768l6.347-16.705c1.299-3.426 5.766-3.441 7.073.003l6.344 16.698c.807 2.508.104 3.436-.627 3.772zM63.143 56.09H54.63c-1.402 0-2.543-1.091-2.543-2.432V35.637c.091-3.492 5.324-3.503 5.417 0v15.588h5.639c3.349.083 3.356 4.78 0 4.865zM83.914 54.092c-.236 2.275-3.433 3.113-4.745 1.231l-6.222-8.245-.921.921v5.789c-.087 3.492-5.216 3.505-5.308.001V35.637c.092-3.495 5.213-3.502 5.307 0v5.703l7.403-7.403c.888-.901 2.432-.707 3.298.193.901.856 1.096 2.418.195 3.298l-6.047 6.046 6.531 8.653c.425.56.608 1.268.509 1.965z" fill="#ffe812" opacity="1" data-original="#ffe812"></path></g><path fill="#3d1d1c" d="M37.829 47.131h5.3l-2.65-7.529z" opacity="1" data-original="#3d1d1c" class=""></path></g></svg>